<?xml version="1.0"?>
<svg version="1.1" xmlns="http://www.w3.org/2000/svg" width="400px" height="100px" style=""><path fill="#" d="M25.953125,63.03125q0-0.546875,0.375-0.6953125t0.8125-0.1484375q0.765625,0,1.296875,0.6875t1.0078125,1.5078125t0.9453125,1.5078125t1.109375,0.6875q0.484375,0,0.8828125-0.2421875t0.6875-0.609375t0.4453125-0.828125t0.15625-0.9140625q0-1.1875-0.4765625-2.453125t-1.21875-2.609375t-1.5703125-2.75t-1.5625-2.859375t-1.21875-2.9609375t-0.484375-3.0390625q0-2.296875,1.375-3.5625t3.625-1.265625q0.765625,0,1.546875,0.21875t1.4375,0.65625t1.0703125,1.078125t0.4140625,1.5q0,0.28125-0.4140625,0.3671875t-0.6015625,0.0859375q-0.28125,0-0.609375-0.0703125t-0.421875-0.3828125t-0.265625-0.71875t-0.4296875-0.7578125t-0.609375-0.609375t-0.7734375-0.2578125q-0.703125,0-1.1953125,0.2890625t-0.796875,0.7734375t-0.453125,1.0859375t-0.1484375,1.2421875q0,1.5,0.515625,3.0234375t1.28125,3.03125t1.6640625,2.9765625t1.6640625,2.859375t1.28125,2.71875t0.515625,2.515625q0,1.0625-0.5,1.796875t-1.265625,1.1953125t-1.6953125,0.671875t-1.8203125,0.2109375q-0.953125,0-1.953125-0.3828125t-1.796875-1.0546875t-1.3125-1.5703125t-0.515625-1.9453125z M40.01046875,59.859375q0-1.125,0.2890625-2.2578125t0.8984375-2.03125t1.5546875-1.4609375t2.2265625-0.5625q0.546875,0,1.203125,0.1328125t1.2109375,0.421875t0.9375,0.75t0.3828125,1.1328125q0,0.421875-0.21875,0.5625t-0.578125,0.140625l-0.109375-0.15625t-0.3046875-0.3984375t-0.4140625-0.515625t-0.421875-0.4609375q-0.640625-0.640625-1.203125-0.6875l-0.125,0q-0.46875,0-0.875,0.28125q-0.453125,0.34375-0.8046875,0.96875t-0.5859375,1.328125t-0.3671875,1.421875t-0.1328125,1.1875q0,0.640625,0.1484375,1.4609375t0.5,1.5546875t0.890625,1.234375t1.3828125,0.5q0.765625,0,1.390625-0.375t1.1953125-0.8359375t1.1171875-0.828125t1.125-0.3671875q0.25,0,0.5078125,0.0625t0.2578125,0.328125l0,0.09375q-0.28125,0.734375-0.953125,1.296875t-1.5078125,0.9765625t-1.734375,0.6171875t-1.6015625,0.203125q-1.3125,0-2.3046875-0.4296875t-1.6484375-1.1796875t-0.9921875-1.8046875t-0.3359375-2.3046875z M53.3334375,60.46875q0-0.890625,0.2265625-1.8359375t0.71875-1.703125t1.2421875-1.234375t1.8125-0.4765625q0.796875,0,1.6796875,0.2734375t1.6171875,0.78125t1.1953125,1.2421875t0.4609375,1.640625q0,1.09375-0.3984375,2.078125t-1.1171875,1.7578125t-1.6796875,1.21875t-2.0859375,0.4453125q-0.921875,0-1.609375-0.3359375t-1.1484375-0.8984375t-0.6875-1.328125t-0.2265625-1.625z M55.6303125,60.4375q0,0.28125,0.0859375,0.828125t0.2578125,1.0703125t0.4453125,0.90625t0.6640625,0.3515625q0.828125-0.09375,1.3671875-0.5390625t0.875-1.0859375t0.46875-1.390625t0.1328125-1.421875q0-0.859375-0.3359375-1.4375t-1.1015625-0.9375q0,0.03125,0.03125,0.03125t0.03125-0.03125l-0.390625-0.09375q-0.15625-0.0625-0.3828125-0.140625t-0.4453125-0.34375q-0.609375,0.21875-0.9453125,0.5625t-0.5078125,0.8359375t-0.2109375,1.1796875t-0.0390625,1.65625z M65.17203125,55.796875q0-0.640625,0.2265625-1.078125t0.9609375-0.4375q0.28125,0,0.703125,0.0859375t0.484375,0.4296875q0.15625,0.921875,0.171875,2t0.109375,2.03125q0.359375-0.703125,0.921875-1.515625t1.28125-1.5t1.5625-1.140625t1.71875-0.453125q0.0625,0,0.234375,0.046875t0.3203125,0.1328125t0.1796875,0.1953125t-0.171875,0.203125q-0.0625,0.1875-0.265625,0.2265625t-0.359375,0.0390625q-0.09375,0-0.296875-0.078125q-1.15625,0.609375-1.96875,1.65625t-1.328125,2.3203125t-0.75,2.6875t-0.234375,2.7578125q0,0.671875-0.3046875,0.8125t-0.9765625,0.140625q-0.359375,0-0.7578125-0.078125t-0.5546875-0.5q-0.28125-0.890625-0.4609375-2.046875t-0.2734375-2.3828125t-0.1328125-2.4140625t-0.0390625-2.140625z M76.27625,56.140625q0-0.640625,0.375-1.1015625t0.9140625-0.75t1.1796875-0.4296875t1.1875-0.140625q0.421875,0,1.125,0.125t1.375,0.375t1.1640625,0.65625t0.4921875,0.953125q0,0.25-0.1875,0.4453125t-0.390625,0.1953125q-0.421875,0-0.765625-0.2734375t-0.7109375-0.578125t-0.8046875-0.578125t-0.984375-0.2734375t-0.9921875,0.3515625t-0.4453125,0.9296875q0,0.953125,0.671875,1.8671875t1.4765625,1.921875t1.4765625,2.1171875t0.671875,2.453125q0,0.578125-0.2421875,0.9765625t-0.640625,0.6484375t-0.8984375,0.3828125t-0.96875,0.1328125q-0.515625,0-1.203125-0.2421875t-1.296875-0.640625t-1.0234375-0.9296875t-0.4140625-1.109375q0-0.28125,0.3984375-0.359375t0.5859375-0.078125q0.09375,0,0.2890625,0.0625t0.3828125,0.140625t0.3359375,0.171875t0.1171875,0.203125q0.15625,0.1875,0.4765625,0.5546875t0.640625,0.59375t0.5625,0.1640625t0.2421875-0.703125q0-1.21875-0.65625-2.2421875t-1.4296875-2t-1.4296875-1.9375t-0.65625-2.0546875z M86.64609375,50.25q0-0.21875,0.46875-0.375t1.0625-0.2578125t1.1484375-0.1484375t0.7578125-0.078125q0-0.421875,0.03125-0.8515625t0.171875-0.765625t0.4453125-0.5390625t0.8515625-0.203125q0.453125,0,0.6875,0.109375t0.5,0.453125q0.0625,0.1875,0.0625,0.359375l0,0.5234375t-0.03125,0.5390625q0.578125-0.0625,1.1484375-0.1484375t1.1484375-0.0859375q0.421875,0,0.578125,0.015625t0.3125,0.375q0.125,0.359375-0.3046875,0.546875t-1.03125,0.28125t-1.1953125,0.140625t-0.71875,0.046875q-0.1875,2.6875-0.3828125,5.328125t-0.1953125,5.359375q0,1.21875,0.078125,2.515625t0.4375,2.453125q0.09375,0.359375,0.3125,0.671875t0.21875,0.671875q0,0.21875-0.171875,0.34375t-0.4140625,0.2109375t-0.484375,0.1015625t-0.3984375,0.015625q-0.984375,0-1.5-0.734375t-0.7421875-1.7578125t-0.2421875-2.1015625t-0.015625-1.75q0-1.375,0.0546875-2.8125t0.1328125-2.84375t0.21875-2.75t0.328125-2.5q-0.546875,0.0625-1.0703125,0.140625t-1.0703125,0.078125q-0.125,0-0.3359375-0.015625t-0.3984375-0.078125t-0.3203125-0.171875t-0.1328125-0.3125z M98.5940625,60.8125q0-1.09375,0.2421875-2.578125t0.8203125-2.8125t1.5234375-2.2578125t2.3828125-0.9296875q1.34375,0,2.015625,0.7734375t0.671875,2.0859375q0,0.859375-0.3203125,1.8828125t-0.9140625,1.9375t-1.40625,1.5234375t-1.8125,0.609375l-0.40625-0.03125q0,0.421875,0.125,1.1328125t0.3671875,1.4140625t0.625,1.234375t0.9296875,0.53125q0.796875,0,1.53125-0.640625t1.390625-1.421875t1.21875-1.421875t1.03125-0.640625q0.25,0,0.515625,0.078125t0.296875,0.4375q0,0.21875-0.1171875,0.359375t-0.2109375,0.3125q-0.484375,0.828125-1.0546875,1.578125t-1.2890625,1.359375t-1.5703125,0.9609375t-1.8828125,0.3515625q-1.34375,0-2.234375-0.4765625t-1.4375-1.28125t-0.7890625-1.859375t-0.2421875-2.2109375z M101.3909375,59.625l0.4375,0.390625q0.3125,0.28125,0.625,0.125t0.5625-0.5703125t0.4609375-1.0234375t0.375-1.25t0.2421875-1.25t0.078125-1.015625l0-0.53125t-0.046875-0.5625t-0.1640625-0.4453125t-0.3671875-0.2265625q-0.078125-0.015625-0.140625-0.015625q-0.53125,0-0.90625,0.671875q-0.40625,0.75-0.65625,1.8203125t-0.359375,2.1953125t-0.140625,1.6875z M111.65140625,60.8125q0-1.09375,0.2421875-2.578125t0.8203125-2.8125t1.5234375-2.2578125t2.3828125-0.9296875q1.34375,0,2.015625,0.7734375t0.671875,2.0859375q0,0.859375-0.3203125,1.8828125t-0.9140625,1.9375t-1.40625,1.5234375t-1.8125,0.609375l-0.40625-0.03125q0,0.421875,0.125,1.1328125t0.3671875,1.4140625t0.625,1.234375t0.9296875,0.53125q0.796875,0,1.53125-0.640625t1.390625-1.421875t1.21875-1.421875t1.03125-0.640625q0.25,0,0.515625,0.078125t0.296875,0.4375q0,0.21875-0.1171875,0.359375t-0.2109375,0.3125q-0.484375,0.828125-1.0546875,1.578125t-1.2890625,1.359375t-1.5703125,0.9609375t-1.8828125,0.3515625q-1.34375,0-2.234375-0.4765625t-1.4375-1.28125t-0.7890625-1.859375t-0.2421875-2.2109375z M114.44828125,59.625l0.4375,0.390625q0.3125,0.28125,0.625,0.125t0.5625-0.5703125t0.4609375-1.0234375t0.375-1.25t0.2421875-1.25t0.078125-1.015625l0-0.53125t-0.046875-0.5625t-0.1640625-0.4453125t-0.3671875-0.2265625q-0.078125-0.015625-0.140625-0.015625q-0.53125,0-0.90625,0.671875q-0.40625,0.75-0.65625,1.8203125t-0.359375,2.1953125t-0.140625,1.6875z M124.70875,55.375q0-0.3125,0.40625-0.3984375t0.625-0.0859375q1.375,0,2.703125-0.234375t2.671875-0.234375q0.125,0,0.4140625,0.015625t0.546875,0.0625t0.4609375,0.15625t0.203125,0.328125q0,0.390625-0.1875,1.125t-0.5078125,1.6484375t-0.703125,1.9375t-0.765625,1.953125t-0.71875,1.6796875t-0.5390625,1.171875q0.515625,0.09375,1.265625,0.15625t1.421875,0.125t1.125,0.2109375t0.421875,0.3671875q-0.0625,0.359375-0.640625,0.5625q-0.5625,0.203125-1.40625,0.28125q-0.515625,0.046875-1.09375,0.046875q-0.34375,0-0.6875-0.015625q-0.9375-0.046875-1.7578125-0.15625t-1.3671875-0.3046875t-0.546875-0.4140625q0-0.09375,0.2734375-0.765625t0.671875-1.6328125t0.8828125-2.09375t0.9296875-2.1796875t0.78125-1.859375t0.4609375-1.125q-0.921875,0.0625-1.8671875,0.15625t-1.8671875,0.09375q-0.125,0-0.3984375-0.015625t-0.53125-0.078125t-0.46875-0.1796875t-0.2109375-0.3046875z M136.78171875,56.6875q0-0.453125,0.2578125-0.59375t0.6484375-0.140625q0.640625,0,0.9765625,0.2421875t0.3359375,0.8515625q0,0.734375,0.109375,1.8359375t0.3203125,2.140625t0.5,1.7890625t0.6015625,0.75q0.578125,0,1.0234375-0.890625t0.78125-2.1875t0.578125-2.7890625t0.3359375-2.6640625q0.0625-0.640625,0.3046875-0.9296875t0.8828125-0.2890625q0.734375,0,1.0703125,0.609375t0.4296875,1.5q0.078125,0.765625,0.078125,1.59375l0,0.265625l0,0.625q0,0.59375,0.015625,1.0625l0.453125,9.578125l0.0625,1.59375q0.03125,0.21875,0.046875,0.4140625t0.015625,0.4140625q0,0.890625-0.3828125,1.1484375t-1.2421875,0.2578125q-0.1875,0-0.4765625-0.03125t-0.5625-0.125t-0.46875-0.2578125t-0.1953125-0.4140625l0.0625-0.15625q0.078125-0.9375,0.078125-1.96875l0-0.328125q-0.015625-1.21875-0.078125-2.46875t-0.140625-2.5t-0.078125-2.40625q-0.21875,0.484375-0.5078125,1t-0.671875,0.9296875t-0.8671875,0.6875t-1.09375,0.2734375q-0.890625,0-1.46875-0.46875t-0.8984375-1.21875t-0.4609375-1.6796875t-0.1875-1.859375t-0.0625-1.7734375t-0.125-1.421875z M155.89640625,46.1875q0-0.734375,0.0390625-1.453125t0.1328125-1.421875q0.0625-0.359375,0.5546875-0.515625t0.8203125-0.15625l0.375,0.03125q0.453125,0.0625,0.9140625-0.0625t0.9140625-0.125q1.0625,0,2.375,0.234375t2.4609375,0.796875t1.9296875,1.4765625t0.78125,2.2578125t-0.8125,2.5078125t-2.046875,2.046875t-2.65625,1.3828125t-2.609375,0.5q0.125,3.015625,0.3515625,5.984375t0.7734375,5.9375l0.03125,0.203125q0,0.21875-0.1953125,0.359375t-0.4609375,0.2265625t-0.5390625,0.1171875t-0.4453125,0.03125q-0.390625,0-0.9453125-0.1484375t-0.6796875-0.5859375q-0.359375-1.375-0.5625-3.0234375t-0.296875-3.4453125t-0.1328125-3.6171875t-0.0390625-3.5546875l0-3.515625q0-0.578125-0.015625-1.203125t-0.015625-1.265625z M158.84953125,43.65625q0,2.140625,0.046875,4.2734375t0.109375,4.2734375q0.921875-0.1875,1.8828125-0.6640625t1.734375-1.1328125t1.25-1.4921875t0.4765625-1.7578125q0-0.828125-0.4140625-1.484375t-1.0703125-1.125q-0.640625-0.453125-1.453125-0.703125q-0.71875-0.21875-1.40625-0.21875l-0.171875,0z M170.07875,60.46875q0-0.890625,0.2265625-1.8359375t0.71875-1.703125t1.2421875-1.234375t1.8125-0.4765625q0.796875,0,1.6796875,0.2734375t1.6171875,0.78125t1.1953125,1.2421875t0.4609375,1.640625q0,1.09375-0.3984375,2.078125t-1.1171875,1.7578125t-1.6796875,1.21875t-2.0859375,0.4453125q-0.921875,0-1.609375-0.3359375t-1.1484375-0.8984375t-0.6875-1.328125t-0.2265625-1.625z M172.375625,60.4375q0,0.28125,0.0859375,0.828125t0.2578125,1.0703125t0.4453125,0.90625t0.6640625,0.3515625q0.828125-0.09375,1.3671875-0.5390625t0.875-1.0859375t0.46875-1.390625t0.1328125-1.421875q0-0.859375-0.3359375-1.4375t-1.1015625-0.9375q0,0.03125,0.03125,0.03125t0.03125-0.03125l-0.390625-0.09375q-0.15625-0.0625-0.3828125-0.140625t-0.4453125-0.34375q-0.609375,0.21875-0.9453125,0.5625t-0.5078125,0.8359375t-0.2109375,1.1796875t-0.0390625,1.65625z M181.91734375,66.515625l0.328125-0.390625q-0.0625-2.625-0.140625-5.234375t-0.078125-5.1875q0-3.203125,0.3828125-6.1953125t0.7578125-6.1328125q0.03125-0.1875,0.1796875-0.3046875t0.3671875-0.1953125t0.4453125-0.109375t0.4140625-0.03125q0.25,0,0.625,0.09375t0.75,0.546875q0,0.15625,0.0234375,0.2734375t0.0234375,0.2734375q0,1.1875-0.3203125,2.546875t-0.4296875,2.609375q-0.125,1.53125-0.171875,3.03125t-0.046875,3.046875l0.03125,1.375q0.3125-0.390625,0.890625-1t1.25-1.1796875t1.34375-0.9765625t1.21875-0.40625q0.828125,0,1.1484375,0.46875t0.3203125,1.234375q0,0.703125-0.3046875,1.46875t-0.796875,1.4921875t-1.1171875,1.3046875t-1.234375,0.859375q0.828125,1.03125,1.6953125,1.96875t1.8984375,1.765625l0,0.359375q-0.03125,0.15625-0.1953125,0.234375t-0.359375,0.125t-0.3828125,0.0703125t-0.3125,0.0234375q-0.765625,0-1.4765625-0.453125t-1.328125-1.109375t-1.1640625-1.390625t-1-1.28125q0.09375,1.796875,0.2109375,3.5859375t0.1171875,3.5859375q0,0.21875-0.1953125,0.3671875t-0.453125,0.2265625t-0.5234375,0.109375t-0.4375,0.03125q-0.921875,0-1.3046875-0.3359375t-0.6484375-1.1640625z M185.12046875,59.15625q0.390625,0,0.9296875-0.3359375t1.1171875-0.8359375t1.078125-1.0546875t0.8046875-1.0546875t0.3046875-0.8046875t-0.421875-0.2734375q-0.15625,0-0.640625,0.453125t-1.078125,1.109375t-1.1875,1.421875t-0.90625,1.375z M194.5684375,60.8125q0-1.09375,0.2421875-2.578125t0.8203125-2.8125t1.5234375-2.2578125t2.3828125-0.9296875q1.34375,0,2.015625,0.7734375t0.671875,2.0859375q0,0.859375-0.3203125,1.8828125t-0.9140625,1.9375t-1.40625,1.5234375t-1.8125,0.609375l-0.40625-0.03125q0,0.421875,0.125,1.1328125t0.3671875,1.4140625t0.625,1.234375t0.9296875,0.53125q0.796875,0,1.53125-0.640625t1.390625-1.421875t1.21875-1.421875t1.03125-0.640625q0.25,0,0.515625,0.078125t0.296875,0.4375q0,0.21875-0.1171875,0.359375t-0.2109375,0.3125q-0.484375,0.828125-1.0546875,1.578125t-1.2890625,1.359375t-1.5703125,0.9609375t-1.8828125,0.3515625q-1.34375,0-2.234375-0.4765625t-1.4375-1.28125t-0.7890625-1.859375t-0.2421875-2.2109375z M197.3653125,59.625l0.4375,0.390625q0.3125,0.28125,0.625,0.125t0.5625-0.5703125t0.4609375-1.0234375t0.375-1.25t0.2421875-1.25t0.078125-1.015625l0-0.53125t-0.046875-0.5625t-0.1640625-0.4453125t-0.3671875-0.2265625q-0.078125-0.015625-0.140625-0.015625q-0.53125,0-0.90625,0.671875q-0.40625,0.75-0.65625,1.8203125t-0.359375,2.1953125t-0.140625,1.6875z M207.66484375,56.2578125q-0.0390625-0.5234375,0.0625-0.9609375t0.40625-0.7109375t0.9765625-0.2734375q0.15625,0,0.3828125,0.0390625t0.4453125,0.1015625t0.3671875,0.1875t0.1484375,0.34375l0,1.765625q0.609375-0.703125,1.328125-1.0078125t1.640625-0.3046875q0.703125,0,1.390625,0.3203125t1.296875,0.8515625t1.0546875,1.171875t0.6484375,1.28125q0.125-0.578125,0.28125-1.4140625t0.4609375-1.6015625t0.8046875-1.3125t1.328125-0.546875q0.890625,0,1.5,0.640625t0.9921875,1.6640625t0.578125,2.2890625t0.2890625,2.5t0.09375,2.3046875l0,1.6796875q0,0.1875-0.140625,0.3046875t-0.3515625,0.1796875t-0.4375,0.078125t-0.3515625,0.015625q-0.484375,0-0.8828125-0.1484375t-0.3984375-0.7578125l0-1.40625t-0.03125-1.8203125t-0.109375-1.953125t-0.203125-1.7734375t-0.3203125-1.28125t-0.4765625-0.5q-0.390625,0-0.5625,0.4375t-0.2890625,1.109375t-0.1796875,1.421875t-0.171875,1.421875t-0.3515625,1.1015625t-0.6640625,0.4296875q-0.453125,0-0.796875-0.4296875t-0.6796875-1.0703125t-0.671875-1.375t-0.7421875-1.375q-0.40625-0.65625-0.875-1.0625q-0.421875-0.390625-0.953125-0.375l-0.078125,0q-0.703125,0.03125-1.1015625,0.5078125t-0.609375,1.1640625t-0.2578125,1.4765625t-0.046875,1.3828125q0,0.5625,0.09375,1.3125q0.0625,0.5,0.0625,0.953125q0,0.234375-0.015625,0.453125q-0.046875,0.65625-0.3515625,1.1015625t-1.1328125,0.4453125q-0.3125,0-0.78125-0.0625t-0.625-0.421875q-0.359375-0.640625-0.546875-1.6171875t-0.28125-2.015625t-0.109375-2.0625t-0.015625-1.7578125q0-0.515625-0.0390625-1.0390625z M227.058125,60.46875q0-0.890625,0.2265625-1.8359375t0.71875-1.703125t1.2421875-1.234375t1.8125-0.4765625q0.796875,0,1.6796875,0.2734375t1.6171875,0.78125t1.1953125,1.2421875t0.4609375,1.640625q0,1.09375-0.3984375,2.078125t-1.1171875,1.7578125t-1.6796875,1.21875t-2.0859375,0.4453125q-0.921875,0-1.609375-0.3359375t-1.1484375-0.8984375t-0.6875-1.328125t-0.2265625-1.625z M229.355,60.4375q0,0.28125,0.0859375,0.828125t0.2578125,1.0703125t0.4453125,0.90625t0.6640625,0.3515625q0.828125-0.09375,1.3671875-0.5390625t0.875-1.0859375t0.46875-1.390625t0.1328125-1.421875q0-0.859375-0.3359375-1.4375t-1.1015625-0.9375q0,0.03125,0.03125,0.03125t0.03125-0.03125l-0.390625-0.09375q-0.15625-0.0625-0.3828125-0.140625t-0.4453125-0.34375q-0.609375,0.21875-0.9453125,0.5625t-0.5078125,0.8359375t-0.2109375,1.1796875t-0.0390625,1.65625z M238.91234375,60.25l0-0.453125q0-0.5625,0.03125-1.0625q0.03125-0.703125,0.03125-1.15625q0-0.25,0.03125-0.5703125t0.15625-0.5078125q0.15625-0.15625,0.3671875-0.3203125t0.4609375-0.1640625q0.796875,0,1.25,0.1796875t0.484375,0.7421875l0.0625,0.484375q0.28125-0.671875,0.75-1.6640625t1.0859375-1.890625t1.390625-1.53125t1.6328125-0.6328125q0.796875,0,1.3125,0.75t0.8203125,1.9140625t0.4296875,2.59375t0.171875,2.8046875t0.0625,2.5078125t0.109375,1.7109375q0.0625,0.484375,0.2109375,1.0234375t0.1484375,0.9921875q0,0.125-0.1796875,0.2421875t-0.3828125,0.1953125t-0.4140625,0.125t-0.3046875,0.046875q-0.609375,0-0.8671875-0.9140625t-0.3203125-2.2890625t-0.0625-2.9765625t-0.109375-2.9765625t-0.4453125-2.2890625t-1.0703125-0.9453125q-0.671875,0-1.390625,0.8671875t-1.234375,2.3046875q-0.5,1.4375-0.6875,3.265625q-0.0625,0.578125-0.0625,1.15625q0,1.265625,0.265625,2.53125q0.03125,0.21875-0.1796875,0.328125t-0.5234375,0.171875t-0.6328125,0.078125t-0.4921875,0.015625q-0.609375,0-0.9765625-0.4296875t-0.5703125-1.1015625t-0.2734375-1.5078125t-0.0859375-1.6484375z M259.10515625,65.640625q0-0.09375,0.0625-0.6640625t0.1640625-1.390625t0.2265625-1.765625t0.21875-1.7890625t0.1640625-1.484375t0.0703125-0.859375q-0.125-0.0625-0.3046875-0.1796875t-0.1796875-0.2734375q0-0.21875,0.2109375-0.3515625t0.3671875-0.1953125q0.0625-0.796875,0.15625-2.21875t0.2890625-3.0703125t0.546875-3.34375t0.9296875-3.078125t1.390625-2.2578125t2-0.875t1.96875,0.75t1.2734375,1.953125t0.75,2.671875t0.390625,2.921875t0.1640625,2.71875t0.0625,2.03125q0.03125,0.484375,0.234375,0.6484375t0.4453125,0.2265625t0.4375,0.140625t0.1953125,0.390625q0,0.359375-0.4375,0.5t-0.6875,0.171875q0.15625,1.953125,0.4296875,3.84375t0.7265625,3.8125q0.0625,0.359375,0.171875,0.7265625t0.109375,0.7109375q0,0.25-0.171875,0.4140625t-0.4453125,0.2578125t-0.546875,0.125t-0.4609375,0.03125q-0.703125,0-1.1875-0.265625t-0.640625-1.015625q-0.421875-2.015625-0.828125-4.234375q-0.34375-1.921875-0.34375-3.734375q0-0.28125,0.015625-0.5625q-1.3125,0-2.640625,0.0625t-2.546875,0.46875q-0.03125,0.421875-0.15625,1.59375t-0.28125,2.515625t-0.3203125,2.5703125t-0.1953125,1.7421875q-0.03125,0.21875-0.3203125,0.4140625t-0.625,0.2109375t-0.59375-0.2109375t-0.2578125-0.8046875z M262.02703125,56.171875q1.21875-0.28125,2.4453125-0.328125t2.4765625-0.109375q-0.0625-0.390625-0.03125-0.8046875t0.03125-0.8359375q0-0.921875-0.046875-2.140625t-0.140625-2.46875t-0.2421875-2.4609375t-0.3359375-2.15625t-0.3984375-1.5078125t-0.4609375-0.5625q-0.484375,0.03125-0.9140625,0.8359375t-0.78125,2.046875t-0.640625,2.78125t-0.484375,3.0078125t-0.3203125,2.734375t-0.15625,1.96875z M274.85,59.984375q0-1.21875,0.2578125-2.2109375t0.8203125-1.6796875t1.4765625-1.0703125t2.2265625-0.3828125q0.734375,0,1.5,0.1953125t1.3125,0.7265625q0-0.3125,0.0625-1.2890625t0.15625-2.2734375t0.1953125-2.71875t0.1796875-2.640625t0.140625-2.046875t0.09375-0.9375q0.15625-0.453125,0.578125-0.5390625t0.796875-0.0859375q0.984375,0,1.2109375,0.3125t0.2265625,1.25q0,3.421875-0.3046875,6.8125t-0.3046875,6.8125q0,2.203125,0.0859375,4.4296875t0.6171875,4.3828125l0.171875,0.15625l0.09375,0.28125l-0.234375,0.359375q-0.59375,0.375-1.375,0.375l-0.0625,0q-0.796875,0-1.46875-0.375q-0.25-0.15625-0.4140625-0.9296875t-0.2578125-1.703125t-0.140625-1.7890625t-0.078125-1.21875q-0.546875,1.25-1.4921875,2.1484375t-2.3828125,0.8984375q-1.125,0-1.84375-0.484375t-1.1171875-1.234375t-0.5625-1.6796875t-0.1640625-1.8515625z M276.740625,60.078125q0,0.359375,0.0859375,1.0625t0.2734375,1.40625t0.5234375,1.25t0.8828125,0.546875q0.734375-0.359375,1.328125-1.1953125t1.0234375-1.84375t0.671875-2.015625t0.2421875-1.7421875q0-0.921875-0.671875-1.53125t-1.609375-0.609375q-0.28125,0-0.5703125,0.109375t-0.5390625,0.25q-0.578125,0.546875-0.8984375,0.9921875t-0.484375,0.921875t-0.2109375,1.0546875t-0.046875,1.34375z M289.32921875,60.46875q0-0.890625,0.2265625-1.8359375t0.71875-1.703125t1.2421875-1.234375t1.8125-0.4765625q0.796875,0,1.6796875,0.2734375t1.6171875,0.78125t1.1953125,1.2421875t0.4609375,1.640625q0,1.09375-0.3984375,2.078125t-1.1171875,1.7578125t-1.6796875,1.21875t-2.0859375,0.4453125q-0.921875,0-1.609375-0.3359375t-1.1484375-0.8984375t-0.6875-1.328125t-0.2265625-1.625z M291.62609375,60.4375q0,0.28125,0.0859375,0.828125t0.2578125,1.0703125t0.4453125,0.90625t0.6640625,0.3515625q0.828125-0.09375,1.3671875-0.5390625t0.875-1.0859375t0.46875-1.390625t0.1328125-1.421875q0-0.859375-0.3359375-1.4375t-1.1015625-0.9375q0,0.03125,0.03125,0.03125t0.03125-0.03125l-0.390625-0.09375q-0.15625-0.0625-0.3828125-0.140625t-0.4453125-0.34375q-0.609375,0.21875-0.9453125,0.5625t-0.5078125,0.8359375t-0.2109375,1.1796875t-0.0390625,1.65625z M301.1678125,54.515625q0-0.734375,0.2890625-1.0859375t1.0546875-0.3515625q0.453125,0,0.8515625,0.1875t0.3984375,0.796875q0.0625,0.890625,0.0625,1.8671875t0.171875,1.8515625q0.390625-0.640625,0.8828125-1.28125t1.0859375-1.140625t1.296875-0.8046875t1.53125-0.3046875q1.125,0,1.90625,0.46875t1.2890625,1.21875t0.734375,1.6953125t0.2265625,1.8984375q0,1.46875-0.4453125,2.3984375t-1.1796875,1.4609375t-1.6640625,0.71875t-1.8671875,0.1875q-0.828125,0-1.546875-0.3203125t-1-1.2109375q0-0.25,0.3671875-0.3125t0.5234375-0.0625q0.515625,0,0.765625,0.28125q0.1875,0.21875,0.4140625,0.4453125t0.4765625,0.2265625q0.484375,0,1.015625-0.2734375t0.9765625-0.71875t0.75-1.0546875t0.3046875-1.25q0-0.546875-0.09375-1.359375t-0.3203125-1.5625t-0.625-1.296875t-1.0078125-0.546875q-0.921875,0-1.6640625,0.84375t-1.234375,2.03125t-0.765625,2.46875t-0.2734375,2.140625t0.109375,2.171875t0.2265625,2.7265625t0.2265625,2.7265625t0.109375,2.171875q0,0.21875-0.1796875,0.3515625t-0.4296875,0.2109375t-0.5078125,0.09375t-0.3828125,0.015625q-0.421875,0-0.8828125-0.09375t-0.6328125-0.578125q-0.21875-0.765625-0.40625-2.1796875t-0.3359375-3.125t-0.2578125-3.59375t-0.1875-3.6328125t-0.1171875-3.203125t-0.0390625-2.3125z M315.50640625,50.25q0-0.21875,0.46875-0.375t1.0625-0.2578125t1.1484375-0.1484375t0.7578125-0.078125q0-0.421875,0.03125-0.8515625t0.171875-0.765625t0.4453125-0.5390625t0.8515625-0.203125q0.453125,0,0.6875,0.109375t0.5,0.453125q0.0625,0.1875,0.0625,0.359375l0,0.5234375t-0.03125,0.5390625q0.578125-0.0625,1.1484375-0.1484375t1.1484375-0.0859375q0.421875,0,0.578125,0.015625t0.3125,0.375q0.125,0.359375-0.3046875,0.546875t-1.03125,0.28125t-1.1953125,0.140625t-0.71875,0.046875q-0.1875,2.6875-0.3828125,5.328125t-0.1953125,5.359375q0,1.21875,0.078125,2.515625t0.4375,2.453125q0.09375,0.359375,0.3125,0.671875t0.21875,0.671875q0,0.21875-0.171875,0.34375t-0.4140625,0.2109375t-0.484375,0.1015625t-0.3984375,0.015625q-0.984375,0-1.5-0.734375t-0.7421875-1.7578125t-0.2421875-2.1015625t-0.015625-1.75q0-1.375,0.0546875-2.8125t0.1328125-2.84375t0.21875-2.75t0.328125-2.5q-0.546875,0.0625-1.0703125,0.140625t-1.0703125,0.078125q-0.125,0-0.3359375-0.015625t-0.3984375-0.078125t-0.3203125-0.171875t-0.1328125-0.3125z M327.454375,59.796875q0-1.4375,0.3359375-2.8203125t0.5703125-2.7578125q0.0625-0.359375,0.4921875-0.4453125t0.7265625-0.0859375q0.515625,0,0.828125,0.15625q0.125,0.0625,0.234375,0.140625t0.109375,0.203125q0,1.34375-0.3203125,2.625t-0.3203125,2.71875q0,0.484375,0.0703125,0.9140625t0.1328125,0.8515625l0.09375,0.453125q0,0.125,0.015625,0.21875t0.046875,0.21875q0,0.28125-0.3984375,0.3828125t-0.6953125,0.1015625q-0.453125,0-0.8359375-0.1796875t-0.6015625-0.6171875l-0.21875-0.453125q-0.1875-0.359375-0.1875-0.8046875t-0.078125-0.8203125z M328.454375,50.390625l0-0.296875q0-0.734375,0.3671875-1.3125t1.1015625-0.578125q0.09375,0,0.1796875,0.015625t0.1796875,0.015625q0.1875,0.03125,0.4921875,0.1484375t0.3046875,0.3671875l0,0.03125q-0.0625,0.125-0.078125,0.2578125t-0.078125,0.2265625l0.03125-0.03125q-0.1875,0.484375-0.3046875,0.78125t-0.2578125,0.4765625t-0.3515625,0.2578125t-0.6015625,0.078125q-0.0625,0-0.21875-0.015625t-0.3359375-0.0625t-0.3046875-0.125t-0.125-0.234375z M333.96484375,60.46875q0-0.890625,0.2265625-1.8359375t0.71875-1.703125t1.2421875-1.234375t1.8125-0.4765625q0.796875,0,1.6796875,0.2734375t1.6171875,0.78125t1.1953125,1.2421875t0.4609375,1.640625q0,1.09375-0.3984375,2.078125t-1.1171875,1.7578125t-1.6796875,1.21875t-2.0859375,0.4453125q-0.921875,0-1.609375-0.3359375t-1.1484375-0.8984375t-0.6875-1.328125t-0.2265625-1.625z M336.26171875,60.4375q0,0.28125,0.0859375,0.828125t0.2578125,1.0703125t0.4453125,0.90625t0.6640625,0.3515625q0.828125-0.09375,1.3671875-0.5390625t0.875-1.0859375t0.46875-1.390625t0.1328125-1.421875q0-0.859375-0.3359375-1.4375t-1.1015625-0.9375q0,0.03125,0.03125,0.03125t0.03125-0.03125l-0.390625-0.09375q-0.15625-0.0625-0.3828125-0.140625t-0.4453125-0.34375q-0.609375,0.21875-0.9453125,0.5625t-0.5078125,0.8359375t-0.2109375,1.1796875t-0.0390625,1.65625z M345.8190625,60.25l0-0.453125q0-0.5625,0.03125-1.0625q0.03125-0.703125,0.03125-1.15625q0-0.25,0.03125-0.5703125t0.15625-0.5078125q0.15625-0.15625,0.3671875-0.3203125t0.4609375-0.1640625q0.796875,0,1.25,0.1796875t0.484375,0.7421875l0.0625,0.484375q0.28125-0.671875,0.75-1.6640625t1.0859375-1.890625t1.390625-1.53125t1.6328125-0.6328125q0.796875,0,1.3125,0.75t0.8203125,1.9140625t0.4296875,2.59375t0.171875,2.8046875t0.0625,2.5078125t0.109375,1.7109375q0.0625,0.484375,0.2109375,1.0234375t0.1484375,0.9921875q0,0.125-0.1796875,0.2421875t-0.3828125,0.1953125t-0.4140625,0.125t-0.3046875,0.046875q-0.609375,0-0.8671875-0.9140625t-0.3203125-2.2890625t-0.0625-2.9765625t-0.109375-2.9765625t-0.4453125-2.2890625t-1.0703125-0.9453125q-0.671875,0-1.390625,0.8671875t-1.234375,2.3046875q-0.5,1.4375-0.6875,3.265625q-0.0625,0.578125-0.0625,1.15625q0,1.265625,0.265625,2.53125q0.03125,0.21875-0.1796875,0.328125t-0.5234375,0.171875t-0.6328125,0.078125t-0.4921875,0.015625q-0.609375,0-0.9765625-0.4296875t-0.5703125-1.1015625t-0.2734375-1.5078125t-0.0859375-1.6484375z M360.01703125,56.140625q0-0.640625,0.375-1.1015625t0.9140625-0.75t1.1796875-0.4296875t1.1875-0.140625q0.421875,0,1.125,0.125t1.375,0.375t1.1640625,0.65625t0.4921875,0.953125q0,0.25-0.1875,0.4453125t-0.390625,0.1953125q-0.421875,0-0.765625-0.2734375t-0.7109375-0.578125t-0.8046875-0.578125t-0.984375-0.2734375t-0.9921875,0.3515625t-0.4453125,0.9296875q0,0.953125,0.671875,1.8671875t1.4765625,1.921875t1.4765625,2.1171875t0.671875,2.453125q0,0.578125-0.2421875,0.9765625t-0.640625,0.6484375t-0.8984375,0.3828125t-0.96875,0.1328125q-0.515625,0-1.203125-0.2421875t-1.296875-0.640625t-1.0234375-0.9296875t-0.4140625-1.109375q0-0.28125,0.3984375-0.359375t0.5859375-0.078125q0.09375,0,0.2890625,0.0625t0.3828125,0.140625t0.3359375,0.171875t0.1171875,0.203125q0.15625,0.1875,0.4765625,0.5546875t0.640625,0.59375t0.5625,0.1640625t0.2421875-0.703125q0-1.21875-0.65625-2.2421875t-1.4296875-2t-1.4296875-1.9375t-0.65625-2.0546875z"/><path fill="#" d=""/></svg>
